<mxfile host="app.diagrams.net" modified="2023-03-26T14:08:58.420Z" agent="Mozilla/5.0 (Windows NT 10.0; Win64; x64) AppleWebKit/537.36 (KHTML, like Gecko) Chrome/111.0.0.0 Safari/537.36" etag="RO_YLbAGNUD8voT3zdWg" version="21.1.1" type="device">
  <diagram name="Page-1" id="fGSQiGtEIsEj6NrFKnZt">
    <mxGraphModel dx="1092" dy="484" grid="1" gridSize="10" guides="1" tooltips="1" connect="1" arrows="1" fold="1" page="1" pageScale="1" pageWidth="850" pageHeight="1100" math="0" shadow="0">
      <root>
        <mxCell id="0" />
        <mxCell id="1" parent="0" />
        <mxCell id="E_6jPbjwHaLnUSRv0mC7-16" style="edgeStyle=orthogonalEdgeStyle;rounded=0;orthogonalLoop=1;jettySize=auto;html=1;entryX=0;entryY=0.5;entryDx=0;entryDy=0;" edge="1" parent="1" source="E_6jPbjwHaLnUSRv0mC7-1" target="E_6jPbjwHaLnUSRv0mC7-15">
          <mxGeometry relative="1" as="geometry" />
        </mxCell>
        <mxCell id="E_6jPbjwHaLnUSRv0mC7-18" style="edgeStyle=orthogonalEdgeStyle;rounded=0;orthogonalLoop=1;jettySize=auto;html=1;entryX=0;entryY=0.5;entryDx=0;entryDy=0;" edge="1" parent="1" source="E_6jPbjwHaLnUSRv0mC7-1" target="E_6jPbjwHaLnUSRv0mC7-17">
          <mxGeometry relative="1" as="geometry" />
        </mxCell>
        <mxCell id="E_6jPbjwHaLnUSRv0mC7-20" style="edgeStyle=orthogonalEdgeStyle;rounded=0;orthogonalLoop=1;jettySize=auto;html=1;entryX=0;entryY=0.5;entryDx=0;entryDy=0;" edge="1" parent="1" source="E_6jPbjwHaLnUSRv0mC7-1" target="E_6jPbjwHaLnUSRv0mC7-19">
          <mxGeometry relative="1" as="geometry" />
        </mxCell>
        <mxCell id="E_6jPbjwHaLnUSRv0mC7-1" value="зарегистрированный пользователь" style="shape=umlActor;verticalLabelPosition=bottom;verticalAlign=top;html=1;outlineConnect=0;" vertex="1" parent="1">
          <mxGeometry x="150" y="200" width="30" height="60" as="geometry" />
        </mxCell>
        <mxCell id="E_6jPbjwHaLnUSRv0mC7-29" style="edgeStyle=orthogonalEdgeStyle;rounded=0;orthogonalLoop=1;jettySize=auto;html=1;entryX=1.042;entryY=0.606;entryDx=0;entryDy=0;entryPerimeter=0;" edge="1" parent="1" source="E_6jPbjwHaLnUSRv0mC7-2" target="E_6jPbjwHaLnUSRv0mC7-27">
          <mxGeometry relative="1" as="geometry" />
        </mxCell>
        <mxCell id="E_6jPbjwHaLnUSRv0mC7-30" style="edgeStyle=orthogonalEdgeStyle;rounded=0;orthogonalLoop=1;jettySize=auto;html=1;entryX=1;entryY=0.5;entryDx=0;entryDy=0;" edge="1" parent="1" source="E_6jPbjwHaLnUSRv0mC7-2" target="E_6jPbjwHaLnUSRv0mC7-23">
          <mxGeometry relative="1" as="geometry" />
        </mxCell>
        <mxCell id="E_6jPbjwHaLnUSRv0mC7-31" style="edgeStyle=orthogonalEdgeStyle;rounded=0;orthogonalLoop=1;jettySize=auto;html=1;entryX=1;entryY=0.5;entryDx=0;entryDy=0;" edge="1" parent="1" source="E_6jPbjwHaLnUSRv0mC7-2" target="E_6jPbjwHaLnUSRv0mC7-21">
          <mxGeometry relative="1" as="geometry" />
        </mxCell>
        <mxCell id="E_6jPbjwHaLnUSRv0mC7-32" style="edgeStyle=orthogonalEdgeStyle;rounded=0;orthogonalLoop=1;jettySize=auto;html=1;entryX=1;entryY=0.5;entryDx=0;entryDy=0;" edge="1" parent="1" source="E_6jPbjwHaLnUSRv0mC7-2" target="E_6jPbjwHaLnUSRv0mC7-25">
          <mxGeometry relative="1" as="geometry" />
        </mxCell>
        <mxCell id="E_6jPbjwHaLnUSRv0mC7-2" value="администратор сайта" style="shape=umlActor;verticalLabelPosition=bottom;verticalAlign=top;html=1;outlineConnect=0;" vertex="1" parent="1">
          <mxGeometry x="770" y="40" width="30" height="60" as="geometry" />
        </mxCell>
        <mxCell id="E_6jPbjwHaLnUSRv0mC7-12" style="edgeStyle=orthogonalEdgeStyle;rounded=0;orthogonalLoop=1;jettySize=auto;html=1;exitX=0.5;exitY=0.5;exitDx=0;exitDy=0;exitPerimeter=0;entryX=0;entryY=0.5;entryDx=0;entryDy=0;" edge="1" parent="1" source="E_6jPbjwHaLnUSRv0mC7-3" target="E_6jPbjwHaLnUSRv0mC7-9">
          <mxGeometry relative="1" as="geometry" />
        </mxCell>
        <mxCell id="E_6jPbjwHaLnUSRv0mC7-13" style="edgeStyle=orthogonalEdgeStyle;rounded=0;orthogonalLoop=1;jettySize=auto;html=1;entryX=0;entryY=0.5;entryDx=0;entryDy=0;" edge="1" parent="1" source="E_6jPbjwHaLnUSRv0mC7-3" target="E_6jPbjwHaLnUSRv0mC7-10">
          <mxGeometry relative="1" as="geometry" />
        </mxCell>
        <mxCell id="E_6jPbjwHaLnUSRv0mC7-14" style="edgeStyle=orthogonalEdgeStyle;rounded=0;orthogonalLoop=1;jettySize=auto;html=1;entryX=0;entryY=0.5;entryDx=0;entryDy=0;" edge="1" parent="1" source="E_6jPbjwHaLnUSRv0mC7-3" target="E_6jPbjwHaLnUSRv0mC7-11">
          <mxGeometry relative="1" as="geometry" />
        </mxCell>
        <mxCell id="E_6jPbjwHaLnUSRv0mC7-3" value="гость" style="shape=umlActor;verticalLabelPosition=bottom;verticalAlign=top;html=1;outlineConnect=0;" vertex="1" parent="1">
          <mxGeometry x="150" y="20" width="30" height="60" as="geometry" />
        </mxCell>
        <mxCell id="E_6jPbjwHaLnUSRv0mC7-35" style="edgeStyle=orthogonalEdgeStyle;rounded=0;orthogonalLoop=1;jettySize=auto;html=1;entryX=0;entryY=0.5;entryDx=0;entryDy=0;" edge="1" parent="1" source="E_6jPbjwHaLnUSRv0mC7-4" target="E_6jPbjwHaLnUSRv0mC7-33">
          <mxGeometry relative="1" as="geometry" />
        </mxCell>
        <mxCell id="E_6jPbjwHaLnUSRv0mC7-36" style="edgeStyle=orthogonalEdgeStyle;rounded=0;orthogonalLoop=1;jettySize=auto;html=1;entryX=0;entryY=0.5;entryDx=0;entryDy=0;" edge="1" parent="1" source="E_6jPbjwHaLnUSRv0mC7-4" target="E_6jPbjwHaLnUSRv0mC7-34">
          <mxGeometry relative="1" as="geometry" />
        </mxCell>
        <mxCell id="E_6jPbjwHaLnUSRv0mC7-4" value="система оплаты" style="shape=umlActor;verticalLabelPosition=bottom;verticalAlign=top;html=1;outlineConnect=0;" vertex="1" parent="1">
          <mxGeometry x="130" y="450" width="30" height="60" as="geometry" />
        </mxCell>
        <mxCell id="E_6jPbjwHaLnUSRv0mC7-38" style="edgeStyle=orthogonalEdgeStyle;rounded=0;orthogonalLoop=1;jettySize=auto;html=1;entryX=1;entryY=0.5;entryDx=0;entryDy=0;" edge="1" parent="1" source="E_6jPbjwHaLnUSRv0mC7-5" target="E_6jPbjwHaLnUSRv0mC7-37">
          <mxGeometry relative="1" as="geometry" />
        </mxCell>
        <mxCell id="E_6jPbjwHaLnUSRv0mC7-5" value="повар" style="shape=umlActor;verticalLabelPosition=bottom;verticalAlign=top;html=1;outlineConnect=0;" vertex="1" parent="1">
          <mxGeometry x="770" y="250" width="30" height="60" as="geometry" />
        </mxCell>
        <mxCell id="E_6jPbjwHaLnUSRv0mC7-42" style="edgeStyle=orthogonalEdgeStyle;rounded=0;orthogonalLoop=1;jettySize=auto;html=1;entryX=1;entryY=0.5;entryDx=0;entryDy=0;" edge="1" parent="1" source="E_6jPbjwHaLnUSRv0mC7-8" target="E_6jPbjwHaLnUSRv0mC7-39">
          <mxGeometry relative="1" as="geometry" />
        </mxCell>
        <mxCell id="E_6jPbjwHaLnUSRv0mC7-43" style="edgeStyle=orthogonalEdgeStyle;rounded=0;orthogonalLoop=1;jettySize=auto;html=1;" edge="1" parent="1" source="E_6jPbjwHaLnUSRv0mC7-8" target="E_6jPbjwHaLnUSRv0mC7-40">
          <mxGeometry relative="1" as="geometry" />
        </mxCell>
        <mxCell id="E_6jPbjwHaLnUSRv0mC7-44" style="edgeStyle=orthogonalEdgeStyle;rounded=0;orthogonalLoop=1;jettySize=auto;html=1;entryX=1;entryY=0.5;entryDx=0;entryDy=0;" edge="1" parent="1" source="E_6jPbjwHaLnUSRv0mC7-8" target="E_6jPbjwHaLnUSRv0mC7-19">
          <mxGeometry relative="1" as="geometry" />
        </mxCell>
        <mxCell id="E_6jPbjwHaLnUSRv0mC7-8" value="курьер" style="shape=umlActor;verticalLabelPosition=bottom;verticalAlign=top;html=1;outlineConnect=0;" vertex="1" parent="1">
          <mxGeometry x="760" y="410" width="30" height="60" as="geometry" />
        </mxCell>
        <mxCell id="E_6jPbjwHaLnUSRv0mC7-9" value="регистрация в системе" style="ellipse;whiteSpace=wrap;html=1;" vertex="1" parent="1">
          <mxGeometry x="320" y="10" width="90" height="50" as="geometry" />
        </mxCell>
        <mxCell id="E_6jPbjwHaLnUSRv0mC7-10" value="просмотр меню" style="ellipse;whiteSpace=wrap;html=1;" vertex="1" parent="1">
          <mxGeometry x="320" y="70" width="90" height="50" as="geometry" />
        </mxCell>
        <mxCell id="E_6jPbjwHaLnUSRv0mC7-11" value="вход в ситему" style="ellipse;whiteSpace=wrap;html=1;" vertex="1" parent="1">
          <mxGeometry x="260" y="140" width="100" height="60" as="geometry" />
        </mxCell>
        <mxCell id="E_6jPbjwHaLnUSRv0mC7-15" value="размещение заказа" style="ellipse;whiteSpace=wrap;html=1;" vertex="1" parent="1">
          <mxGeometry x="390" y="200" width="100" height="60" as="geometry" />
        </mxCell>
        <mxCell id="E_6jPbjwHaLnUSRv0mC7-17" value="оплата заказа" style="ellipse;whiteSpace=wrap;html=1;" vertex="1" parent="1">
          <mxGeometry x="375" y="290" width="100" height="60" as="geometry" />
        </mxCell>
        <mxCell id="E_6jPbjwHaLnUSRv0mC7-19" value="отмена заказа" style="ellipse;whiteSpace=wrap;html=1;" vertex="1" parent="1">
          <mxGeometry x="375" y="360" width="100" height="60" as="geometry" />
        </mxCell>
        <mxCell id="E_6jPbjwHaLnUSRv0mC7-21" value="управление заказами" style="ellipse;whiteSpace=wrap;html=1;" vertex="1" parent="1">
          <mxGeometry x="450" y="60" width="100" height="60" as="geometry" />
        </mxCell>
        <mxCell id="E_6jPbjwHaLnUSRv0mC7-23" value="управление меню" style="ellipse;whiteSpace=wrap;html=1;" vertex="1" parent="1">
          <mxGeometry x="580" y="100" width="100" height="60" as="geometry" />
        </mxCell>
        <mxCell id="E_6jPbjwHaLnUSRv0mC7-25" value="управление оплатами" style="ellipse;whiteSpace=wrap;html=1;" vertex="1" parent="1">
          <mxGeometry x="585" y="180" width="100" height="60" as="geometry" />
        </mxCell>
        <mxCell id="E_6jPbjwHaLnUSRv0mC7-27" value="добавление, редактирование,&lt;br&gt;удаление акций" style="ellipse;whiteSpace=wrap;html=1;" vertex="1" parent="1">
          <mxGeometry x="580" width="110" height="80" as="geometry" />
        </mxCell>
        <mxCell id="E_6jPbjwHaLnUSRv0mC7-33" value="обработка платежей" style="ellipse;whiteSpace=wrap;html=1;" vertex="1" parent="1">
          <mxGeometry x="290" y="440" width="100" height="60" as="geometry" />
        </mxCell>
        <mxCell id="E_6jPbjwHaLnUSRv0mC7-34" value="потверждение оплаты" style="ellipse;whiteSpace=wrap;html=1;" vertex="1" parent="1">
          <mxGeometry x="290" y="510" width="100" height="60" as="geometry" />
        </mxCell>
        <mxCell id="E_6jPbjwHaLnUSRv0mC7-37" value="получение и приготовление блюд" style="ellipse;whiteSpace=wrap;html=1;" vertex="1" parent="1">
          <mxGeometry x="580" y="260" width="100" height="60" as="geometry" />
        </mxCell>
        <mxCell id="E_6jPbjwHaLnUSRv0mC7-39" value="получение заказа на доставку" style="ellipse;whiteSpace=wrap;html=1;" vertex="1" parent="1">
          <mxGeometry x="590" y="330" width="100" height="60" as="geometry" />
        </mxCell>
        <mxCell id="E_6jPbjwHaLnUSRv0mC7-40" value="доставка заказа клиенту" style="ellipse;whiteSpace=wrap;html=1;" vertex="1" parent="1">
          <mxGeometry x="570" y="460" width="100" height="60" as="geometry" />
        </mxCell>
      </root>
    </mxGraphModel>
  </diagram>
</mxfile>
